<svg width="24" height="25" viewBox="0 0 24 25" fill="none" xmlns="http://www.w3.org/2000/svg">
<path fill-rule="evenodd" clip-rule="evenodd" d="M7.465 1.30721C8.638 1.25321 9.012 1.24121 12 1.24121C14.988 1.24121 15.362 1.25421 16.534 1.30721C17.706 1.36021 18.506 1.54721 19.206 1.81821C19.939 2.09521 20.604 2.52821 21.154 3.08821C21.714 3.63721 22.146 4.30121 22.422 5.03521C22.694 5.73521 22.88 6.53521 22.934 7.70521C22.988 8.88021 23 9.25421 23 12.2412C23 15.2292 22.987 15.6032 22.934 16.7762C22.881 17.9462 22.694 18.7462 22.422 19.4462C22.146 20.1803 21.7133 20.8454 21.154 21.3952C20.604 21.9552 19.939 22.3872 19.206 22.6632C18.506 22.9352 17.706 23.1212 16.536 23.1752C15.362 23.2292 14.988 23.2412 12 23.2412C9.012 23.2412 8.638 23.2282 7.465 23.1752C6.295 23.1222 5.495 22.9352 4.795 22.6632C4.06092 22.3872 3.39582 21.9545 2.846 21.3952C2.28638 20.8459 1.85331 20.1811 1.577 19.4472C1.306 18.7472 1.12 17.9472 1.066 16.7772C1.012 15.6022 1 15.2282 1 12.2412C1 9.25321 1.013 8.87921 1.066 7.70721C1.119 6.53521 1.306 5.73521 1.577 5.03521C1.85372 4.30129 2.28712 3.63652 2.847 3.08721C3.39604 2.52771 4.06047 2.09465 4.794 1.81821C5.494 1.54721 6.294 1.36121 7.464 1.30721H7.465ZM16.445 3.28721C15.285 3.23421 14.937 3.22321 12 3.22321C9.063 3.22321 8.715 3.23421 7.555 3.28721C6.482 3.33621 5.9 3.51521 5.512 3.66621C4.999 3.86621 4.632 4.10321 4.247 4.48821C3.88205 4.84326 3.60118 5.27549 3.425 5.75321C3.274 6.14121 3.095 6.72321 3.046 7.79621C2.993 8.95621 2.982 9.30421 2.982 12.2412C2.982 15.1782 2.993 15.5262 3.046 16.6862C3.095 17.7592 3.274 18.3412 3.425 18.7292C3.601 19.2062 3.882 19.6392 4.247 19.9942C4.602 20.3592 5.035 20.6402 5.512 20.8162C5.9 20.9672 6.482 21.1462 7.555 21.1952C8.715 21.2482 9.062 21.2592 12 21.2592C14.938 21.2592 15.285 21.2482 16.445 21.1952C17.518 21.1462 18.1 20.9672 18.488 20.8162C19.001 20.6162 19.368 20.3792 19.753 19.9942C20.118 19.6392 20.399 19.2062 20.575 18.7292C20.726 18.3412 20.905 17.7592 20.954 16.6862C21.007 15.5262 21.018 15.1782 21.018 12.2412C21.018 9.30421 21.007 8.95621 20.954 7.79621C20.905 6.72321 20.726 6.14121 20.575 5.75321C20.375 5.24021 20.138 4.87321 19.753 4.48821C19.3979 4.12328 18.9657 3.84242 18.488 3.66621C18.1 3.51521 17.518 3.33621 16.445 3.28721ZM10.595 15.6322C11.3797 15.9588 12.2534 16.0029 13.0669 15.7569C13.8805 15.5109 14.5834 14.9901 15.0556 14.2835C15.5278 13.5768 15.7401 12.7281 15.656 11.8823C15.572 11.0365 15.197 10.2462 14.595 9.64621C14.2112 9.26269 13.7472 8.96902 13.2363 8.78636C12.7255 8.60369 12.1804 8.53657 11.6405 8.58983C11.1006 8.64308 10.5792 8.81539 10.1138 9.09434C9.64845 9.37329 9.25074 9.75196 8.9493 10.2031C8.64786 10.6542 8.45019 11.1665 8.37052 11.7032C8.29084 12.2398 8.33115 12.7875 8.48854 13.3067C8.64593 13.826 8.91648 14.3038 9.28072 14.7059C9.64496 15.108 10.0938 15.4244 10.595 15.6322ZM8.002 8.24321C8.52702 7.71819 9.15032 7.30171 9.8363 7.01757C10.5223 6.73343 11.2575 6.58718 12 6.58718C12.7425 6.58718 13.4777 6.73343 14.1637 7.01757C14.8497 7.30171 15.473 7.71819 15.998 8.24321C16.523 8.76824 16.9395 9.39153 17.2236 10.0775C17.5078 10.7635 17.654 11.4987 17.654 12.2412C17.654 12.9837 17.5078 13.7189 17.2236 14.4049C16.9395 15.0909 16.523 15.7142 15.998 16.2392C14.9377 17.2995 13.4995 17.8952 12 17.8952C10.5005 17.8952 9.06234 17.2995 8.002 16.2392C6.94166 15.1789 6.34597 13.7408 6.34597 12.2412C6.34597 10.7417 6.94166 9.30355 8.002 8.24321ZM18.908 7.42921C19.0381 7.30648 19.1423 7.15889 19.2143 6.99518C19.2863 6.83148 19.3248 6.65498 19.3274 6.47614C19.33 6.2973 19.2967 6.11976 19.2295 5.95402C19.1622 5.78828 19.0624 5.63772 18.936 5.51125C18.8095 5.38478 18.6589 5.28497 18.4932 5.21773C18.3275 5.15049 18.1499 5.11719 17.9711 5.11979C17.7922 5.1224 17.6157 5.16086 17.452 5.23291C17.2883 5.30495 17.1407 5.40911 17.018 5.53921C16.7793 5.79224 16.6486 6.12833 16.6537 6.47614C16.6588 6.82395 16.7992 7.15609 17.0452 7.40205C17.2911 7.64802 17.6233 7.78844 17.9711 7.79351C18.3189 7.79858 18.655 7.6679 18.908 7.42921Z" fill="#FFFCFC"/>
</svg>
