<svg width="24" height="25" viewBox="0 0 24 25" fill="none" xmlns="http://www.w3.org/2000/svg">
<path d="M19.5527 3.23812C19.3119 3.25564 19.0756 3.31212 18.853 3.40537H18.85C18.6362 3.49012 17.62 3.91762 16.075 4.56562L10.5385 6.89737C6.56571 8.56987 2.66046 10.2169 2.66046 10.2169L2.70696 10.1989C2.70696 10.1989 2.43771 10.2874 2.15646 10.4801C1.98271 10.5907 1.83319 10.7354 1.71696 10.9054C1.57896 11.1079 1.46796 11.4176 1.50921 11.7379C1.57671 12.2794 1.92771 12.6041 2.17971 12.7834C2.43471 12.9649 2.67771 13.0496 2.67771 13.0496H2.68371L6.34596 14.2834C6.51021 14.8106 7.46196 17.9396 7.69071 18.6604C7.82571 19.0909 7.95696 19.3601 8.12121 19.5656C8.20071 19.6706 8.29371 19.7584 8.40546 19.8289C8.46356 19.8627 8.5255 19.8894 8.58996 19.9084L8.55246 19.8994C8.56371 19.9024 8.57271 19.9114 8.58096 19.9144C8.61096 19.9226 8.63121 19.9256 8.66946 19.9316C9.24921 20.1071 9.71496 19.7471 9.71496 19.7471L9.74121 19.7261L11.9035 17.7574L15.5275 20.5376L15.61 20.5729C16.3652 20.9044 17.1302 20.7199 17.5345 20.3944C17.9417 20.0666 18.1 19.6474 18.1 19.6474L18.1262 19.5799L20.9267 5.23312C21.0062 4.87912 21.0265 4.54762 20.9387 4.22587C20.8482 3.90024 20.6393 3.62018 20.353 3.44062C20.1125 3.29446 19.8337 3.22391 19.5527 3.23812ZM19.477 4.77562C19.474 4.82287 19.483 4.81762 19.462 4.90837V4.91662L16.6877 19.1141C16.6757 19.1344 16.6555 19.1786 16.6 19.2229C16.5415 19.2694 16.495 19.2986 16.2512 19.2019L11.8187 15.8036L9.14121 18.2441L9.70371 14.6516L16.9457 7.90162C17.2442 7.62412 17.1445 7.56562 17.1445 7.56562C17.1655 7.22512 16.6937 7.46587 16.6937 7.46587L7.56171 13.1231L7.55871 13.1081L3.18171 11.6344V11.6314L3.17046 11.6291C3.17813 11.6266 3.18565 11.6236 3.19296 11.6201L3.21696 11.6081L3.24021 11.5999C3.24021 11.5999 7.14846 9.95287 11.1212 8.28037C13.1102 7.44262 15.1142 6.59887 16.6555 5.94787C17.5695 5.56312 18.4845 5.18062 19.4005 4.80037C19.462 4.77637 19.4327 4.77637 19.477 4.77637V4.77562Z" fill="#FFFCFC"/>
</svg>
