<svg width="33" height="33" viewBox="0 0 33 33" fill="none" xmlns="http://www.w3.org/2000/svg">
<path d="M16.5996 1.8822C8.31511 1.8822 1.59961 8.5977 1.59961 16.8822C1.59961 25.1667 8.31511 31.8822 16.5996 31.8822C24.8841 31.8822 31.5996 25.1667 31.5996 16.8822C31.5996 8.5977 24.8841 1.8822 16.5996 1.8822Z" stroke="#F88906" stroke-width="2" stroke-linecap="round" stroke-linejoin="round"/>
<path d="M5.00586 26.4012C5.00586 26.4012 8.34936 22.1322 16.5994 22.1322C24.8494 22.1322 28.1944 26.4012 28.1944 26.4012M16.5994 16.8822C17.7928 16.8822 18.9374 16.4081 19.7813 15.5642C20.6253 14.7203 21.0994 13.5757 21.0994 12.3822C21.0994 11.1887 20.6253 10.0441 19.7813 9.20022C18.9374 8.35631 17.7928 7.8822 16.5994 7.8822C15.4059 7.8822 14.2613 8.35631 13.4174 9.20022C12.5735 10.0441 12.0994 11.1887 12.0994 12.3822C12.0994 13.5757 12.5735 14.7203 13.4174 15.5642C14.2613 16.4081 15.4059 16.8822 16.5994 16.8822V16.8822Z" stroke="#F88906" stroke-width="2" stroke-linecap="round" stroke-linejoin="round"/>
</svg>
